<svg width="0" height="0"><symbol xmlns="http://www.w3.org/2000/svg" id="arrow-left" fill="none" stroke="currentColor" stroke-linecap="round" stroke-linejoin="round" stroke-width="2" viewBox="0 0 24 24"><path d="M0 0h24v24H0zm5 12h14M5 12l6 6m-6-6 6-6"/></symbol><symbol xmlns="http://www.w3.org/2000/svg" id="arrow-right" fill="none" stroke="currentColor" stroke-linecap="round" stroke-linejoin="round" stroke-width="2" viewBox="0 0 24 24"><path d="M0 0h24v24H0zm5 12h14m-6 6 6-6m-6-6 6 6"/></symbol><symbol xmlns="http://www.w3.org/2000/svg" id="bell" fill="none" viewBox="0 0 24 24"><path stroke="currentColor" stroke-linecap="round" stroke-linejoin="round" stroke-width="1.5" d="M9 17.5v1c0 1.657 1.343 2.5 3 2.5s3-.843 3-2.5v-1m-9-9c0-3.314 2.686-5 6-5s6 1.686 6 5c0 1.94.705 4.113 1.432 5.839.603 1.433-.41 3.161-1.964 3.161H6.532c-1.554 0-2.567-1.728-1.964-3.161C5.295 12.613 6 10.439 6 8.5Z"/></symbol><symbol xmlns="http://www.w3.org/2000/svg" id="discord" viewBox="0 0 127.14 96.36"><g id="图层_2"><g id="Discord_Logos"><path id="Discord_Logo_-_Large_-_White" d="M107.7 8.07A105.15 105.15 0 0 0 81.47 0a72.06 72.06 0 0 0-3.36 6.83 97.68 97.68 0 0 0-29.11 0A72.37 72.37 0 0 0 45.64 0a105.89 105.89 0 0 0-26.25 8.09C2.79 32.65-1.71 56.6.54 80.21a105.73 105.73 0 0 0 32.17 16.15 77.7 77.7 0 0 0 6.89-11.11 68.42 68.42 0 0 1-10.85-5.18c.91-.66 1.8-1.34 2.66-2a75.57 75.57 0 0 0 64.32 0c.87.71 1.76 1.39 2.66 2a68.68 68.68 0 0 1-10.87 5.19 77 77 0 0 0 6.89 11.1 105.25 105.25 0 0 0 32.19-16.14c2.64-27.38-4.51-51.11-18.9-72.15ZM42.45 65.69C36.18 65.69 31 60 31 53s5-12.74 11.43-12.74S54 46 53.89 53s-5.05 12.69-11.44 12.69Zm42.24 0C78.41 65.69 73.25 60 73.25 53s5-12.74 11.44-12.74S96.23 46 96.12 53s-5.04 12.69-11.43 12.69Z"/></g></g></symbol><symbol xmlns="http://www.w3.org/2000/svg" id="message" fill="none" stroke="currentColor" stroke-linecap="round" stroke-linejoin="round" stroke-width="2" viewBox="0 0 24 24"><path d="M0 0h24v24H0z"/><path d="M8 9h8m-8 4h6m4-9a3 3 0 0 1 3 3v8a3 3 0 0 1-3 3h-5l-5 3v-3H6a3 3 0 0 1-3-3V7a3 3 0 0 1 3-3h12z"/></symbol><symbol xmlns="http://www.w3.org/2000/svg" xml:space="preserve" id="people-flying" viewBox="0 0 60.224 60.224"><path d="M59.934 35.278c-1.347-2.631-2.693-5.262-4.043-7.893a6.08 6.08 0 0 1-2.916 4.979l.887 1.729h-7.785c.056-1.125-.207-2.264-.783-3.211a2.737 2.737 0 0 0-.24-.528c-3.266-5.537-9.305-6.127-15.076-7.09-3.073-.513-4.388 4.181-1.296 4.698 1.434.239 3.017.402 4.574.671l-11.582.012-4.534-4.096c-.934-.843-2.538-1.036-3.445 0L6.59 32.67a2.455 2.455 0 0 0-.625 1.403H2.357c-3.142 0-3.142 4.871 0 4.871h18.521v.024l20.167.01c.119.001.232-.008.351-.014h16.42c1.234 0 1.977-.756 2.24-1.67.235-.592.249-1.292-.122-2.016zm-48.113-1.205c1.265-1.449 2.531-2.896 3.797-4.343l4.368 3.946c.19.173.389.294.59.396l-8.755.001z"/><circle cx="49.794" cy="26.421" r="5.176"/></symbol><symbol xmlns="http://www.w3.org/2000/svg" xml:space="preserve" id="people-idle" viewBox="0 0 1200 1200"><path id="path16023" d="M719.57 272.035c18.461 0 35.451 3.565 50.975 10.698 46.078 23.193 73.285 67.272 73.631 116.424V737.73c-8.643 53.824-70.25 39.188-71.742 0V418.037c-5.49-18.231-40.693-10.672-41.535 0v733.785c-8.951 74.928-105.773 52.934-108.242-1.258V701.23c-6.191-28.982-46.936-15.813-47.829 1.259 1.728 149.353 1.259 298.715 1.259 448.075-9.656 74.543-106.007 55.47-108.243 1.258l-1.258-733.785c-5.643-17.838-38.263-10.996-39.019 0V737.73c-8.644 53.824-70.25 39.188-71.742 0V399.157c.871-47.056 18.117-94.197 59.156-116.424 13.426-7.133 29.788-10.699 49.087-10.699l255.502.001zm-1.269-153.758c0 65.323-52.955 118.278-118.278 118.278-65.322 0-118.277-52.955-118.277-118.278C481.745 52.955 534.7 0 600.021 0c65.325 0 118.28 52.955 118.28 118.277z"/></symbol><symbol xmlns="http://www.w3.org/2000/svg" id="people-rotate" fill="none" stroke="currentColor" stroke-linecap="round" stroke-linejoin="round" stroke-width="2" viewBox="0 0 24 24"><path d="M0 0h24v24H0z"/><path d="M19.95 11a8 8 0 1 0-.5 4m.5 5v-5h-5"/></symbol><symbol xmlns="http://www.w3.org/2000/svg" id="people-running" fill="none" viewBox="0 0 24 24"><path stroke="currentColor" stroke-linecap="round" stroke-linejoin="round" stroke-width="2" d="M14 22v-5.039a2 2 0 0 0-.75-1.561L11.5 14m0 0L13 7.5M11.5 14 10 13m3-5.5L11 7m2 .5 2.043 3.268a2 2 0 0 0 1.303.901L18 12m-8 1 1-6m-1 6-.6 3.3a2 2 0 0 1-2.542 1.557L4 17m7-10L8.106 8.447A2 2 0 0 0 7 10.237V12m7.5-8.5a1 1 0 1 1-2 0 1 1 0 0 1 2 0Z"/></symbol></svg>