<svg width="0" height="0"><symbol xmlns="http://www.w3.org/2000/svg" xml:space="preserve" id="people-idle" viewBox="0 0 1200 1200"><path id="path16023" d="M719.57 272.035c18.461 0 35.451 3.565 50.975 10.698 46.078 23.193 73.285 67.272 73.631 116.424V737.73c-8.643 53.824-70.25 39.188-71.742 0V418.037c-5.49-18.231-40.693-10.672-41.535 0v733.785c-8.951 74.928-105.773 52.934-108.242-1.258V701.23c-6.191-28.982-46.936-15.813-47.829 1.259 1.728 149.353 1.259 298.715 1.259 448.075-9.656 74.543-106.007 55.47-108.243 1.258l-1.258-733.785c-5.643-17.838-38.263-10.996-39.019 0V737.73c-8.644 53.824-70.25 39.188-71.742 0V399.157c.871-47.056 18.117-94.197 59.156-116.424 13.426-7.133 29.788-10.699 49.087-10.699l255.502.001zm-1.269-153.758c0 65.323-52.955 118.278-118.278 118.278-65.322 0-118.277-52.955-118.277-118.278C481.745 52.955 534.7 0 600.021 0c65.325 0 118.28 52.955 118.28 118.277z"/></symbol><symbol xmlns="http://www.w3.org/2000/svg" id="people-running" fill="none" viewBox="0 0 24 24"><path stroke="currentColor" stroke-linecap="round" stroke-linejoin="round" stroke-width="2" d="M14 22v-5.039a2 2 0 0 0-.75-1.561L11.5 14m0 0L13 7.5M11.5 14 10 13m3-5.5L11 7m2 .5 2.043 3.268a2 2 0 0 0 1.303.901L18 12m-8 1 1-6m-1 6-.6 3.3a2 2 0 0 1-2.542 1.557L4 17m7-10L8.106 8.447A2 2 0 0 0 7 10.237V12m7.5-8.5a1 1 0 1 1-2 0 1 1 0 0 1 2 0Z"/></symbol></svg>