<svg width="0" height="0"><symbol xmlns="http://www.w3.org/2000/svg" id="arrow-right" fill="none" stroke="currentColor" stroke-linecap="round" stroke-linejoin="round" stroke-width="2" viewBox="0 0 24 24"><path d="M0 0h24v24H0zm5 12h14m-6 6 6-6m-6-6 6 6"/></symbol><symbol xmlns="http://www.w3.org/2000/svg" id="message" fill="none" stroke="currentColor" stroke-linecap="round" stroke-linejoin="round" stroke-width="2" viewBox="0 0 24 24"><path d="M0 0h24v24H0z"/><path d="M8 9h8m-8 4h6m4-9a3 3 0 0 1 3 3v8a3 3 0 0 1-3 3h-5l-5 3v-3H6a3 3 0 0 1-3-3V7a3 3 0 0 1 3-3h12z"/></symbol><symbol xmlns="http://www.w3.org/2000/svg" xml:space="preserve" id="people-flying" viewBox="0 0 60.224 60.224"><path d="M59.934 35.278c-1.347-2.631-2.693-5.262-4.043-7.893a6.08 6.08 0 0 1-2.916 4.979l.887 1.729h-7.785c.056-1.125-.207-2.264-.783-3.211a2.737 2.737 0 0 0-.24-.528c-3.266-5.537-9.305-6.127-15.076-7.09-3.073-.513-4.388 4.181-1.296 4.698 1.434.239 3.017.402 4.574.671l-11.582.012-4.534-4.096c-.934-.843-2.538-1.036-3.445 0L6.59 32.67a2.455 2.455 0 0 0-.625 1.403H2.357c-3.142 0-3.142 4.871 0 4.871h18.521v.024l20.167.01c.119.001.232-.008.351-.014h16.42c1.234 0 1.977-.756 2.24-1.67.235-.592.249-1.292-.122-2.016zm-48.113-1.205c1.265-1.449 2.531-2.896 3.797-4.343l4.368 3.946c.19.173.389.294.59.396l-8.755.001z"/><circle cx="49.794" cy="26.421" r="5.176"/></symbol><symbol xmlns="http://www.w3.org/2000/svg" xml:space="preserve" id="people-idle" viewBox="0 0 1200 1200"><path id="path16023" d="M719.57 272.035c18.461 0 35.451 3.565 50.975 10.698 46.078 23.193 73.285 67.272 73.631 116.424V737.73c-8.643 53.824-70.25 39.188-71.742 0V418.037c-5.49-18.231-40.693-10.672-41.535 0v733.785c-8.951 74.928-105.773 52.934-108.242-1.258V701.23c-6.191-28.982-46.936-15.813-47.829 1.259 1.728 149.353 1.259 298.715 1.259 448.075-9.656 74.543-106.007 55.47-108.243 1.258l-1.258-733.785c-5.643-17.838-38.263-10.996-39.019 0V737.73c-8.644 53.824-70.25 39.188-71.742 0V399.157c.871-47.056 18.117-94.197 59.156-116.424 13.426-7.133 29.788-10.699 49.087-10.699l255.502.001zm-1.269-153.758c0 65.323-52.955 118.278-118.278 118.278-65.322 0-118.277-52.955-118.277-118.278C481.745 52.955 534.7 0 600.021 0c65.325 0 118.28 52.955 118.28 118.277z"/></symbol><symbol xmlns="http://www.w3.org/2000/svg" id="people-running" fill="none" viewBox="0 0 24 24"><path stroke="currentColor" stroke-linecap="round" stroke-linejoin="round" stroke-width="2" d="M14 22v-5.039a2 2 0 0 0-.75-1.561L11.5 14m0 0L13 7.5M11.5 14 10 13m3-5.5L11 7m2 .5 2.043 3.268a2 2 0 0 0 1.303.901L18 12m-8 1 1-6m-1 6-.6 3.3a2 2 0 0 1-2.542 1.557L4 17m7-10L8.106 8.447A2 2 0 0 0 7 10.237V12m7.5-8.5a1 1 0 1 1-2 0 1 1 0 0 1 2 0Z"/></symbol></svg>