<svg width="0" height="0"><symbol xmlns="http://www.w3.org/2000/svg" xml:space="preserve" id="people-lying" viewBox="0 0 60.224 60.224"><path d="M59.934 35.278c-1.347-2.631-2.693-5.262-4.043-7.893a6.08 6.08 0 0 1-2.916 4.979l.887 1.729h-7.785c.056-1.125-.207-2.264-.783-3.211a2.737 2.737 0 0 0-.24-.528c-3.266-5.537-9.305-6.127-15.076-7.09-3.073-.513-4.388 4.181-1.296 4.698 1.434.239 3.017.402 4.574.671l-11.582.012-4.534-4.096c-.934-.843-2.538-1.036-3.445 0L6.59 32.67a2.455 2.455 0 0 0-.625 1.403H2.357c-3.142 0-3.142 4.871 0 4.871h18.521v.024l20.167.01c.119.001.232-.008.351-.014h16.42c1.234 0 1.977-.756 2.24-1.67.235-.592.249-1.292-.122-2.016zm-48.113-1.205c1.265-1.449 2.531-2.896 3.797-4.343l4.368 3.946c.19.173.389.294.59.396l-8.755.001z"/><circle cx="49.794" cy="26.421" r="5.176"/></symbol><symbol xmlns="http://www.w3.org/2000/svg" id="people-running" fill="none" viewBox="0 0 24 24"><path stroke="currentColor" stroke-linecap="round" stroke-linejoin="round" stroke-width="2" d="M14 22v-5.039a2 2 0 0 0-.75-1.561L11.5 14m0 0L13 7.5M11.5 14 10 13m3-5.5L11 7m2 .5 2.043 3.268a2 2 0 0 0 1.303.901L18 12m-8 1 1-6m-1 6-.6 3.3a2 2 0 0 1-2.542 1.557L4 17m7-10L8.106 8.447A2 2 0 0 0 7 10.237V12m7.5-8.5a1 1 0 1 1-2 0 1 1 0 0 1 2 0Z"/></symbol></svg>